<svg width="24" height="24" viewBox="0 0 24 24" fill="none" xmlns="http://www.w3.org/2000/svg">
<path d="M3.375 4.5C2.339 4.5 1.5 5.34 1.5 6.375V13.5H13.5V6.375C13.5 5.339 12.66 4.5 11.625 4.5H3.375ZM13.5 15H1.5V17.625C1.5 18.66 2.34 19.5 3.375 19.5H3.75C3.75 18.7044 4.06607 17.9413 4.62868 17.3787C5.19129 16.8161 5.95435 16.5 6.75 16.5C7.54565 16.5 8.30871 16.8161 8.87132 17.3787C9.43393 17.9413 9.75 18.7044 9.75 19.5H12.75C12.9489 19.5 13.1397 19.421 13.2803 19.2803C13.421 19.1397 13.5 18.9489 13.5 18.75V15Z" fill="white"/>
<path d="M8.25 19.5C8.25 19.1022 8.09196 18.7206 7.81066 18.4393C7.52936 18.158 7.14782 18 6.75 18C6.35218 18 5.97064 18.158 5.68934 18.4393C5.40804 18.7206 5.25 19.1022 5.25 19.5C5.25 19.8978 5.40804 20.2793 5.68934 20.5606C5.97064 20.8419 6.35218 21 6.75 21C7.14782 21 7.52936 20.8419 7.81066 20.5606C8.09196 20.2793 8.25 19.8978 8.25 19.5ZM15.75 6.74999C15.5511 6.74999 15.3603 6.829 15.2197 6.96966C15.079 7.11031 15 7.30107 15 7.49999V18.75C15 18.837 15.015 18.92 15.042 18.998C15.1666 18.2591 15.5632 17.5937 16.1538 17.1325C16.7444 16.6714 17.4861 16.4479 18.2331 16.5061C18.9802 16.5642 19.6784 16.8999 20.1904 17.4469C20.7025 17.9939 20.9913 18.7128 21 19.462C21.853 19.287 22.522 18.527 22.464 17.579C22.2403 13.9173 20.9422 10.4029 18.732 7.47499C18.5598 7.24859 18.3374 7.06526 18.0823 6.93945C17.8272 6.81364 17.5464 6.74878 17.262 6.74999H15.75Z" fill="white"/>
<path d="M19.5 19.5C19.5 19.1022 19.342 18.7206 19.0607 18.4393C18.7794 18.158 18.3978 18 18 18C17.6022 18 17.2206 18.158 16.9393 18.4393C16.658 18.7206 16.5 19.1022 16.5 19.5C16.5 19.8978 16.658 20.2794 16.9393 20.5607C17.2206 20.842 17.6022 21 18 21C18.3978 21 18.7794 20.842 19.0607 20.5607C19.342 20.2794 19.5 19.8978 19.5 19.5Z" fill="white"/>
</svg>
